<svg width="101" height="102" viewBox="0 0 101 102" fill="none" xmlns="http://www.w3.org/2000/svg">
<path d="M100.081 44.7206C102.741 75.8596 79.0854 100.863 50.777 101.961C24.09 102.997 3.1164 83.0585 0.560005 57.5426C-1.99639 32.0266 13.3424 3.50722 45.2989 0.301724C76.2116 -2.79907 97.8348 18.4178 100.081 44.7206Z" fill="#3D3D3D"/>
<path d="M0.717746 58.9296C1.15228 58.8816 1.58047 58.8074 1.99379 58.6692C2.39626 58.5346 2.7813 58.4394 3.17309 58.3425C3.3095 58.3087 3.4468 58.2748 3.58587 58.2389C4.08555 58.11 4.06772 57.7713 4.04602 57.3591C4.04139 57.2712 4.03659 57.18 4.03659 57.0868C4.03659 56.2647 4.2637 55.3947 4.47498 54.5853C4.50382 54.4748 4.53238 54.3654 4.56001 54.2574C4.73006 53.5931 5.12135 53.5518 5.74668 53.4858L5.75952 53.4844C6.20274 53.4376 6.62787 53.2983 7.04985 53.1599C7.55823 52.9933 8.06208 52.8281 8.58746 52.8281C8.98092 52.8281 9.35924 52.8949 9.73423 52.9611C10.1027 53.0262 10.4679 53.0906 10.8411 53.0906C11.1091 53.0906 11.2856 52.8406 11.4539 52.6019C11.5321 52.4911 11.6086 52.3828 11.6916 52.3031C12.0954 51.9157 12.5422 51.443 12.5422 50.8592C12.5422 50.1929 12.5528 49.9909 13.1529 49.605C13.3997 49.4463 13.6474 49.2852 13.8961 49.1236C15.0146 48.3965 16.1535 47.6561 17.3257 47.0527C17.7411 46.8389 18.1478 46.7195 18.574 46.5944C18.6799 46.5634 18.7873 46.5318 18.896 46.4985C19.1589 46.4179 19.3933 46.1478 19.6089 45.8991C19.7094 45.7833 19.8058 45.6721 19.8992 45.587C20.1384 45.3688 20.3931 45.1706 20.6478 44.9724C20.8693 44.8001 21.0909 44.6277 21.3023 44.4421C21.5104 44.2594 21.5742 44.1356 21.6563 43.9762C21.701 43.8895 21.7512 43.7922 21.833 43.6692C21.9818 43.4452 22.1988 43.4182 22.4245 43.3901C22.5082 43.3797 22.5932 43.3691 22.6762 43.3483C23.3294 43.1845 24.0153 43.0002 24.6536 42.7868C24.9544 42.6862 25.2648 42.5954 25.5764 42.5042C26.1969 42.3226 26.8225 42.1396 27.387 41.8753C27.817 41.674 28.3648 41.5646 28.8265 41.4815C29.0227 41.4462 29.2632 41.4558 29.5084 41.4656C29.8574 41.4796 30.2158 41.4939 30.4694 41.3794C31.1728 41.0619 30.8197 40.0259 30.5899 39.3515C30.5553 39.2499 30.5235 39.1566 30.4985 39.0751C30.2488 38.261 31.8335 37.7029 32.8056 37.3605C33.06 37.271 33.2725 37.1961 33.3991 37.1354C33.8237 36.9317 34.2196 36.3752 34.5344 35.9325C34.6035 35.8353 34.6687 35.7436 34.7295 35.6624C35.3521 34.8296 35.8487 33.7938 36.1616 32.8038C36.4163 31.9983 36.6336 31.1913 36.8501 30.3874C37.3072 28.6899 37.7606 27.0062 38.5534 25.3804C38.9408 24.5859 39.5363 24.4184 40.2085 24.2293C40.5309 24.1387 40.8709 24.0431 41.2141 23.8709C41.9664 23.4936 42.5754 22.957 43.1954 22.4107C43.3383 22.2848 43.4818 22.1584 43.6277 22.0333C44.495 21.2898 45.4805 20.4084 45.8813 19.3133C45.9332 19.1715 45.9784 19.0383 46.021 18.9129C46.2473 18.2467 46.4 17.7969 47.0881 17.4173C47.5525 17.1611 47.9825 16.8766 48.408 16.5951C49.2927 16.0097 50.1583 15.4369 51.2755 15.1568C51.9496 14.9877 52.2341 14.5657 52.588 14.0406C52.6849 13.8967 52.7871 13.7452 52.9039 13.589C53.4012 12.9238 54.2854 12.4003 55.1284 12.4003C55.9792 12.4003 57.6874 11.6561 57.6874 10.6065C57.6874 10.5617 57.687 10.5084 57.6866 10.4483C57.6821 9.80777 57.6721 8.38505 58.0509 8.03961C58.3157 7.79813 58.9453 7.74488 59.419 7.70481C59.5607 7.69283 59.6885 7.68203 59.7883 7.66771C60.4638 7.57093 61.124 7.32426 61.7439 7.04788C61.8682 6.99245 62.0003 6.9595 62.1322 6.9266C62.3953 6.86095 62.6576 6.7955 62.8562 6.55201C63.1848 6.14914 63.0743 5.58452 62.9623 5.01174C62.871 4.54522 62.7786 4.07328 62.9216 3.6789C63.0396 3.3535 63.8123 3.13556 64.4219 2.96365C64.7082 2.88289 64.9585 2.8123 65.088 2.7455C65.4041 2.58244 65.5712 2.293 65.6786 1.96728C59.5038 0.204759 52.6651 -0.437165 45.2989 0.301723C44.2645 0.405479 43.2476 0.535757 42.2481 0.691594C42.6791 1.34033 43.3319 2.43072 43.4169 3.19761C43.455 3.54217 43.5248 3.90153 43.5955 4.26511C43.8356 5.5011 44.0853 6.78602 43.1333 7.70417C42.7955 8.03004 42.0096 8.41076 41.534 8.32401C40.9791 8.22282 40.7953 7.56467 40.6519 7.0509C40.6254 6.95598 40.6002 6.866 40.5744 6.78536C40.5296 6.6455 40.5279 6.4488 40.5261 6.24315C40.5233 5.91512 40.5202 5.56432 40.3417 5.38526C39.9294 4.97163 38.773 5.08421 38.0422 5.15535C37.8971 5.16947 37.7688 5.18196 37.6665 5.18838C37.6272 5.19084 37.5881 5.19275 37.5495 5.19463C37.2127 5.21107 36.9144 5.22564 36.8741 5.58944C36.8009 6.2504 36.4947 6.88624 36.198 7.47082C35.8116 8.23211 35.4982 8.79991 34.9185 9.38137C34.6915 9.60908 34.4238 9.82505 34.1559 10.0411C33.8124 10.3183 33.4686 10.5956 33.2101 10.8981C32.9605 11.1902 32.4172 11.4611 32.0486 11.6449L31.967 11.6857C31.787 11.776 31.6064 11.7047 31.425 11.6332C31.3369 11.5984 31.2486 11.5636 31.16 11.5471C29.6484 11.2663 28.0733 12.318 26.7011 13.2342C26.2941 13.506 25.9049 13.7658 25.5405 13.9754C25.1808 14.1824 24.8445 14.4234 24.5088 14.664C24.167 14.9089 23.8259 15.1534 23.4614 15.361C23.3137 15.445 23.2348 15.5793 23.1528 15.7187C23.094 15.8187 23.0336 15.9213 22.9452 16.01C22.6007 16.3555 22.2232 16.6244 21.842 16.896C21.6203 17.0539 21.3972 17.2128 21.1787 17.3882C20.6267 17.8311 20.2627 16.705 20.2627 16.3673C20.2627 15.6052 20.3337 15.0666 20.7207 14.3765C20.7493 14.3255 20.8332 14.2207 20.9392 14.0882C21.313 13.6213 21.9625 12.81 21.4404 12.7941C20.8098 12.7749 20.0493 12.8311 19.543 13.2608C19.2801 13.4839 19.189 13.8376 19.0998 14.1836C19.057 14.3495 19.0147 14.5137 18.9541 14.6609C18.8139 15.0015 18.6118 15.2707 18.4027 15.549C18.3224 15.656 18.241 15.7644 18.1617 15.8787C17.7251 16.5083 17.4435 16.5343 16.9393 16.5809C16.8127 16.5926 16.6721 16.6056 16.5115 16.6298C16.027 16.7027 15.5788 16.8902 15.1334 17.0765C14.6968 17.2592 14.2628 17.4407 13.7999 17.5121C13.4132 17.5718 13.0082 17.8081 12.6529 18.0155C12.5926 18.0506 12.5338 18.0849 12.4768 18.1174C12.1093 18.3266 11.7395 18.5102 11.3659 18.6823C2.87135 29.674 -0.793846 44.0294 0.560005 57.5426C0.606514 58.0068 0.659121 58.4692 0.717746 58.9296Z" fill="black"/>
<path d="M39.3388 101.092C26.4535 98.5692 15.6323 90.9662 8.67512 80.464C9.13119 80.3419 9.58759 80.2089 10.0486 80.0644C10.5351 79.9119 10.6287 79.5461 10.739 79.1143C10.7847 78.9356 10.8333 78.7457 10.9137 78.5549C11.0601 78.2078 11.1369 77.8422 11.2116 77.4865C11.3684 76.7396 11.5161 76.0361 12.2805 75.638C13.8362 74.8278 15.5865 74.053 17.282 73.5671C17.3455 73.5489 17.4068 73.531 17.466 73.5136C18.2388 73.2876 18.6699 73.1615 19.2085 73.8369C19.3661 74.0344 19.4886 74.2431 19.6092 74.4486C19.8319 74.8279 20.0481 75.1962 20.4662 75.463C20.746 75.6416 21.1789 75.5063 21.4731 75.4144L21.5276 75.3974C22.7283 75.0268 23.9235 74.6405 25.1188 74.2525C25.9885 73.9703 26.8465 73.6311 27.7047 73.2919L27.7056 73.2915C28.3752 73.0268 29.0452 72.762 29.7206 72.5243C30.1837 72.3613 30.6556 72.249 31.1267 72.1368C31.5899 72.0266 32.0523 71.9165 32.5049 71.7586C32.8165 71.6499 33.1381 71.5944 33.4602 71.5389C33.7941 71.4814 34.1286 71.4237 34.4532 71.3065C35.2572 71.0162 36.0163 70.684 36.7359 70.22C36.9995 70.05 37.2502 69.7925 37.481 69.5554C37.5341 69.5007 37.5864 69.4471 37.6374 69.3959C38.0816 68.9503 38.5523 68.8596 39.1531 68.7437C39.2089 68.7329 39.2658 68.722 39.3239 68.7105C39.5307 68.6696 39.737 68.6311 39.9427 68.5928C40.8315 68.4271 41.7096 68.2634 42.559 67.9156C43.1116 67.6894 43.4047 67.3581 43.74 66.9793C43.837 66.8697 43.938 66.7556 44.0493 66.6395C44.2941 66.3841 44.409 65.9191 44.5088 65.5157C44.5448 65.37 44.5789 65.2323 44.6163 65.1154C44.8489 64.3897 45.0714 63.6583 45.2343 62.9132C45.2727 62.7371 45.2948 62.5497 45.317 62.3606C45.3552 62.0357 45.394 61.7053 45.5178 61.4183C46.6732 58.7382 49.5523 56.5994 51.8643 54.9939C52.4057 54.6179 52.5026 54.2701 52.6464 53.7537C52.6863 53.6103 52.7298 53.4539 52.7875 53.2802C53.0323 52.5438 53.5122 52.1039 54.0574 51.6042C54.1203 51.5465 54.1844 51.4878 54.2487 51.428C55.1318 50.6079 56.173 50.0801 57.2366 49.5467C57.7225 49.3029 57.8796 48.9515 58.0545 48.5604C58.1351 48.3801 58.2195 48.1913 58.3416 48.0007C59.5605 46.0988 61.6788 45.984 63.7624 45.8711C64.8071 45.8145 65.8432 45.7584 66.7527 45.4776C67.3333 45.2984 67.7719 43.5319 67.9636 42.7596C67.9882 42.6606 68.0087 42.5779 68.0249 42.517C68.3598 41.2619 69.6008 41.0321 70.7777 40.8141C71.0087 40.7713 71.2375 40.7289 71.4563 40.6794C72.2992 40.4884 73.1392 40.3621 73.9828 40.2353C74.4164 40.1701 74.851 40.1047 75.2874 40.0304C75.3711 40.0161 75.5092 40.0091 75.6711 40.0009C76.1525 39.9764 76.8452 39.9413 76.9522 39.6731C77.0788 39.3556 77.2491 39.0584 77.42 38.7601C77.6036 38.4399 77.7877 38.1185 77.9191 37.7698L77.938 37.7195C78.1269 37.2169 78.3438 36.6399 78.7842 36.3187C79.0078 36.1556 79.5231 36.1419 79.9541 36.1304C80.1587 36.125 80.3444 36.1201 80.4708 36.0999C81.0718 36.0039 81.667 35.8697 82.2622 35.7356C82.7327 35.6296 83.2033 35.5235 83.6767 35.4363C84.1252 35.3537 84.574 35.273 85.0228 35.1923L85.0257 35.1918C85.3682 35.1302 85.7116 35.0685 86.0539 35.0061C86.4953 34.9256 86.4253 35.1708 86.3395 35.4715C86.3177 35.5476 86.295 35.6273 86.2793 35.7061C86.2716 35.7448 86.2614 35.7921 86.2498 35.8462C86.1348 36.3821 85.8773 37.5817 86.4465 37.6021C87.0396 37.6233 87.6476 37.5815 88.257 37.5395C88.7552 37.5052 89.2543 37.4708 89.747 37.4708C90.2596 37.4708 91.1915 38.0661 91.31 38.6011C91.3591 38.8228 91.2674 39.0518 91.185 39.2576C91.0447 39.6083 90.9312 39.8917 91.5862 39.9574C91.7331 39.9722 91.8809 39.9873 92.0295 40.0025L92.0339 40.003C93.1101 40.1131 94.2264 40.2273 95.2938 40.2273C95.8105 40.2273 95.8794 40.1077 96.1298 39.6731C96.1903 39.568 96.2585 39.4548 96.3294 39.337C96.5518 38.9676 96.8017 38.5526 96.9295 38.2C96.9565 38.1255 96.9621 38.0652 96.9665 38.0175C96.9767 37.9084 96.9807 37.8646 97.2203 37.8646C97.4107 37.8646 97.6012 37.8656 97.7917 37.8667C98.1731 37.8688 98.5549 37.8709 98.9359 37.8646C98.9692 37.864 99.0021 37.863 99.0345 37.8613C99.5309 40.0989 99.8821 42.3898 100.081 44.7206C102.074 68.0555 89.2896 87.9449 70.8434 96.9109C70.1921 96.7548 69.3331 96.7818 68.9018 96.7954L68.9006 96.7954L68.7943 96.7986C68.7735 96.7992 68.7545 96.7996 68.7374 96.7999C67.6653 96.8185 66.5682 96.9949 65.4942 97.1675C65.2216 97.2114 64.9497 97.2551 64.6809 97.2958C64.2083 97.3673 63.6977 97.5129 63.1726 97.6626C62.0666 97.978 60.8964 98.3117 59.8828 98.0104C59.7574 97.9732 59.4108 97.9585 58.9755 97.9401C57.845 97.8923 56.1171 97.8193 56.1171 97.2593C56.1171 97.0283 56.2948 96.5625 56.4924 96.0449C56.8755 95.041 57.3331 93.8419 56.7132 93.781C55.5295 93.6646 54.3748 93.8026 53.2156 93.9412C52.8219 93.9883 52.4275 94.0354 52.0315 94.0727L51.6966 94.1039C50.3655 94.2274 48.9633 94.3576 47.6842 94.6998C46.9092 94.9071 46.9397 96.8867 46.9541 97.8222C46.9557 97.9289 46.9572 98.0226 46.9572 98.0979C46.9572 98.8847 45.9656 98.4451 45.454 98.2183L45.3797 98.1854C45.0517 98.0415 44.6637 97.9949 44.311 97.9813C44.1661 97.9757 44.0916 97.8957 44.0114 97.8097C43.9236 97.7155 43.8289 97.614 43.6276 97.5948C43.0206 97.5368 42.3415 98.0801 41.9192 98.4552C41.7129 98.6385 41.5009 98.8212 41.2876 99.0049C40.7843 99.4384 40.2739 99.878 39.8183 100.344C39.5796 100.588 39.4384 100.837 39.3388 101.092Z" fill="black"/>
<path d="M10.1372 72.3795C9.99829 72.4447 9.86793 72.5058 9.69043 72.6541C9.49684 72.816 8.77196 72.5539 8.61653 72.4587C8.14227 72.1679 7.8699 71.6422 7.59943 71.1201C7.48731 70.9037 7.37552 70.6879 7.24981 70.4898C6.94313 70.0063 6.52447 69.5579 6.11327 69.1174C5.98619 68.9812 5.85983 68.8459 5.7377 68.7105C5.32008 68.2475 5.46142 67.2083 5.89764 66.7708C6.02394 66.6441 6.52094 66.6918 6.84569 66.723C6.95178 66.7332 7.03948 66.7416 7.08988 66.7416C7.51354 66.7416 7.85141 66.9224 8.19782 67.1079C8.38997 67.2107 8.58475 67.315 8.79827 67.3906C9.10781 67.5002 9.21929 67.6831 9.34338 67.8868C9.41523 68.0047 9.4913 68.1295 9.61248 68.2511C9.75595 68.395 9.93907 68.4958 10.1199 68.5953C10.259 68.6718 10.3967 68.7476 10.5139 68.8417C10.6443 68.9464 10.6156 69.2674 10.5931 69.5184C10.5845 69.6149 10.5768 69.701 10.5794 69.7606C10.5873 69.9443 10.6497 70.111 10.7116 70.2763C10.7766 70.45 10.8411 70.622 10.8411 70.8106C10.8411 70.9076 10.8476 71.0093 10.8542 71.1119C10.8791 71.5015 10.905 71.9055 10.5794 72.1232C10.397 72.2577 10.2635 72.3203 10.1372 72.3795Z" fill="black"/>
<path d="M16.9767 69.2209C16.8506 69.9162 15.8659 69.9019 15.26 69.8932H15.2586C15.1734 69.8919 15.095 69.8908 15.0284 69.8918C14.0844 69.2209 13.2703 68.3712 13.3345 67.4052C13.4012 66.4024 14.3767 65.1665 15.4282 65.1665C15.4712 65.1665 15.5255 65.1651 15.5879 65.1636C16.0293 65.1526 16.8753 65.1314 16.9912 65.5092C17.156 66.0464 17.1412 66.6186 17.1267 67.1779L17.1267 67.1791C17.1251 67.2425 17.1234 67.3057 17.1221 67.3687C17.1099 67.9317 17.0767 68.6693 16.9767 69.2209Z" fill="black"/>
<path d="M54.4624 52.4474C54.0158 46.3333 58.1344 41.4938 64.286 41.0927C70.9839 40.656 75.8505 44.27 76.3422 50.6809C76.8099 56.777 73.2166 61.9209 66.5186 62.9287C59.8207 63.9365 54.8841 58.2213 54.4624 52.4474Z" fill="#1BBBFF"/>
<path d="M26.1251 51.1316C26.1251 47.5909 28.9954 44.7206 32.5361 44.7206H51.6902V57.5426H32.5361C28.9954 57.5426 26.1251 54.6723 26.1251 51.1316Z" fill="#D459FF"/>
<path d="M26.1251 73.1121C26.1251 67.0423 31.0305 62.1218 37.0816 62.1218H51.6902L52.1467 72.1962C52.1467 80.5769 45.0931 85.9219 37.5381 85.4761C29.7773 85.0182 26.1251 79.1818 26.1251 73.1121Z" fill="#0CCE86"/>
<path d="M24.6535 30.3243C24.1408 24.1156 28.7579 18.6656 34.966 18.1516L49.8677 16.9178L51.7243 39.4018L36.8226 40.6357C30.6145 41.1497 25.1662 36.5331 24.6535 30.3243Z" fill="#F14E1E"/>
<path d="M49.0826 17.9828L62.9878 16.8315C68.6455 16.3631 73.6108 20.5703 74.078 26.2287C74.5452 31.887 70.3375 36.8538 64.6798 37.3222L50.7746 38.4735L49.0826 17.9828Z" stroke="#F14E1E" stroke-width="2"/>
</svg>
