<svg width="376" height="123" viewBox="0 0 376 123" fill="none" xmlns="http://www.w3.org/2000/svg">
<mask id="mask0_502_127" style="mask-type:luminance" maskUnits="userSpaceOnUse" x="0" y="0" width="376" height="123">
<path d="M375.458 0H0V122.064H375.458V0Z" fill="white"/>
</mask>
<g mask="url(#mask0_502_127)">
<path d="M375.458 5.34058e-05H6.10352e-05V122.065H375.458V5.34058e-05Z" fill="#F0BC00"/>
<path d="M93.1939 97.1524H21.8198C19.8873 97.1524 18.1656 96.1569 17.2052 94.4821C16.2448 92.8072 16.2448 90.8161 17.2052 89.153L52.8923 27.5586C53.8527 25.8954 55.5744 24.8999 57.5069 24.8999C59.4394 24.8999 61.1494 25.8954 62.1215 27.5586L97.8086 89.153C98.7807 90.8161 98.7807 92.8072 97.8086 94.4821C96.8482 96.1569 95.1265 97.1524 93.1939 97.1524ZM57.5069 29.9947C57.3663 29.9947 57.3195 30.0767 57.2961 30.1118L21.609 91.7063C21.609 91.7063 21.5387 91.8234 21.609 91.9405C21.6793 92.0576 21.773 92.0576 21.8198 92.0576H93.1939C93.1939 92.0576 93.3345 92.0576 93.4048 91.9405C93.475 91.8234 93.4282 91.7414 93.4048 91.7063L57.7177 30.1118C57.7177 30.1118 57.6474 29.9947 57.5069 29.9947Z" fill="#363636"/>
<path d="M54.0049 52.7514H61.0205L59.6501 75.3677H55.3752L54.0049 52.7514ZM54.0049 83.9527V78.1083H61.0205V83.9527H54.0049Z" fill="#363636"/>
<path d="M388.704 -5.38767H115.951V57.2609H388.704V-5.38767Z" fill="#363636"/>
<path d="M119.535 -9.33482H113.433V128.67H119.535V-9.33482Z" fill="#363636"/>
<path d="M164.826 42.5147H159.45L157.306 36.9514H147.515L145.489 42.5147H140.242L149.776 18.0362H154.999L164.802 42.5147H164.826ZM155.725 32.8287L152.352 23.7401L149.049 32.8287H155.725Z" fill="#F3C540"/>
<path d="M172.884 42.5147V22.1824H165.622V18.0362H185.076V22.1824H177.826V42.5264H172.884V42.5147Z" fill="#F3C540"/>
<path d="M196.238 42.5147V22.1824H188.976V18.0362H208.43V22.1824H201.18V42.5264H196.238V42.5147Z" fill="#F3C540"/>
<path d="M214.087 42.5147V18.0362H232.241V22.1824H219.03V27.6051H231.328V31.7278H219.03V38.392H232.71V42.5147H214.087Z" fill="#F3C540"/>
<path d="M239.409 42.5147V18.0362H244.223L254.248 34.3865V18.0362H258.84V42.5147H253.885L244.012 26.551V42.5147H239.421H239.409Z" fill="#F3C540"/>
<path d="M272.039 42.5147V22.1824H264.778V18.0362H284.231V22.1824H276.982V42.5264H272.039V42.5147Z" fill="#F3C540"/>
<path d="M289.736 42.5147V18.0362H294.679V42.5147H289.736Z" fill="#F3C540"/>
<path d="M300.851 30.4279C300.851 27.9332 301.226 25.8367 301.975 24.1502C302.538 22.9087 303.287 21.7843 304.259 20.7888C305.22 19.7932 306.274 19.0671 307.422 18.5869C308.944 17.9427 310.701 17.6148 312.704 17.6148C316.311 17.6148 319.192 18.7391 321.359 20.9762C323.526 23.2132 324.603 26.3286 324.603 30.3108C324.603 34.2929 323.526 37.3615 321.383 39.5868C319.228 41.8239 316.358 42.9365 312.762 42.9365C309.167 42.9365 306.227 41.8239 304.072 39.6103C301.929 37.3849 300.851 34.3281 300.851 30.4279ZM305.946 30.2639C305.946 33.0397 306.59 35.1362 307.867 36.5651C309.143 37.994 310.771 38.7084 312.739 38.7084C314.707 38.7084 316.323 37.994 317.588 36.5768C318.853 35.1596 319.485 33.028 319.485 30.1937C319.485 27.3593 318.864 25.298 317.635 23.9159C316.405 22.5339 314.765 21.8429 312.727 21.8429C310.689 21.8429 309.05 22.5456 307.796 23.9393C306.555 25.3331 305.923 27.4413 305.923 30.2639H305.946Z" fill="#F3C540"/>
<path d="M330.963 42.5147V18.0362H335.777L345.802 34.3865V18.0362H350.394V42.5147H345.439L335.566 26.551V42.5147H330.975H330.963Z" fill="#F3C540"/>
<path style="mix-blend-mode:hard-light" opacity="0.19" d="M375.458 5.34058e-05H6.10352e-05V122.065H375.458V5.34058e-05Z" fill="url(#paint0_linear_502_127)"/>
<path d="M160.232 96V80.424H163.064V96H160.232ZM171.911 96L177.215 80.424H180.767L185.855 96H182.879L181.799 92.64H176.015L174.911 96H171.911ZM176.735 90.504H181.127L178.943 83.808L176.735 90.504ZM188.638 80.424H192.694L197.086 89.952H196.846L201.238 80.424H205.15V96H202.294V83.688H202.726L197.878 94.296H196.03L191.206 83.736H191.47V96H188.638V80.424ZM213.981 96L219.285 80.424H222.837L227.925 96H224.949L223.869 92.64H218.085L216.981 96H213.981ZM218.805 90.504H223.197L221.013 83.808L218.805 90.504ZM236.779 96V80.424H246.595V82.872H239.611V86.976H245.995V89.4H239.611V96H236.779ZM249.904 96V80.424H255.664C257.528 80.424 258.956 80.86 259.948 81.732C260.948 82.604 261.448 83.76 261.448 85.2C261.448 86.616 260.948 87.76 259.948 88.632C258.956 89.496 257.528 89.928 255.664 89.928H252.736V96H249.904ZM258.328 96L254.2 88.704H257.224L262.024 96H258.328ZM252.736 88.032H255.376C256.416 88.032 257.204 87.796 257.74 87.324C258.276 86.844 258.544 86.224 258.544 85.464C258.544 84.688 258.3 84.064 257.812 83.592C257.324 83.112 256.608 82.872 255.664 82.872H252.736V88.032ZM265.325 96V80.424H275.333V82.872H268.157V86.976H274.901V89.424H268.157V93.528H275.333V96H265.325ZM284.859 96.336C283.779 96.336 282.783 96.148 281.871 95.772C280.967 95.396 280.231 94.824 279.663 94.056C279.103 93.288 278.803 92.312 278.763 91.128H281.547C281.547 91.728 281.695 92.22 281.991 92.604C282.287 92.988 282.683 93.276 283.179 93.468C283.683 93.652 284.235 93.744 284.835 93.744C285.411 93.744 285.923 93.668 286.371 93.516C286.827 93.364 287.183 93.148 287.439 92.868C287.703 92.58 287.835 92.24 287.835 91.848C287.835 91.328 287.675 90.92 287.355 90.624C287.043 90.328 286.539 90.056 285.843 89.808L282.771 88.584C281.571 88.112 280.651 87.564 280.011 86.94C279.371 86.316 279.051 85.456 279.051 84.36C279.051 83.096 279.551 82.072 280.551 81.288C281.551 80.504 282.947 80.112 284.739 80.112C286.483 80.112 287.831 80.52 288.783 81.336C289.735 82.144 290.275 83.272 290.403 84.72H287.619C287.515 84.104 287.235 83.612 286.779 83.244C286.323 82.868 285.643 82.68 284.739 82.68C283.939 82.68 283.307 82.848 282.843 83.184C282.379 83.512 282.147 83.928 282.147 84.432C282.147 84.864 282.291 85.208 282.579 85.464C282.875 85.712 283.331 85.952 283.947 86.184L287.355 87.504C288.507 87.952 289.391 88.516 290.007 89.196C290.623 89.876 290.931 90.728 290.931 91.752C290.931 92.688 290.695 93.5 290.223 94.188C289.751 94.868 289.063 95.396 288.159 95.772C287.255 96.148 286.155 96.336 284.859 96.336ZM294.74 80.424H297.572V86.928H304.364V80.424H307.196V96H304.364V89.4H297.572V96H294.74V80.424ZM311.638 96V80.424H321.646V82.872H314.47V86.976H321.214V89.424H314.47V93.528H321.646V96H311.638ZM325.748 96V80.424H331.508C333.372 80.424 334.8 80.86 335.792 81.732C336.792 82.604 337.292 83.76 337.292 85.2C337.292 86.616 336.792 87.76 335.792 88.632C334.8 89.496 333.372 89.928 331.508 89.928H328.58V96H325.748ZM334.172 96L330.044 88.704H333.068L337.868 96H334.172ZM328.58 88.032H331.22C332.26 88.032 333.048 87.796 333.584 87.324C334.12 86.844 334.388 86.224 334.388 85.464C334.388 84.688 334.144 84.064 333.656 83.592C333.168 83.112 332.452 82.872 331.508 82.872H328.58V88.032Z" fill="#363636"/>
</g>
<defs>
<linearGradient id="paint0_linear_502_127" x1="94.8103" y1="4.59124" x2="328.433" y2="146.484" gradientUnits="userSpaceOnUse">
<stop stop-color="#36363A"/>
<stop offset="0.05" stop-color="#39393D"/>
<stop offset="0.1" stop-color="#454549"/>
<stop offset="0.14" stop-color="#58585B"/>
<stop offset="0.19" stop-color="#737376"/>
<stop offset="0.23" stop-color="#969698"/>
<stop offset="0.28" stop-color="#C0C0C2"/>
<stop offset="0.31" stop-color="#E3E3E4"/>
<stop offset="0.37" stop-color="#B0B0B2"/>
<stop offset="0.46" stop-color="#5F5F63"/>
<stop offset="0.51" stop-color="#636367"/>
<stop offset="0.56" stop-color="#707074"/>
<stop offset="0.62" stop-color="#878789"/>
<stop offset="0.65" stop-color="#98989A"/>
<stop offset="0.68" stop-color="#A5A5A6"/>
<stop offset="0.73" stop-color="#C7C7C8"/>
<stop offset="0.8" stop-color="#FDFDFD"/>
<stop offset="0.9" stop-color="#848487"/>
<stop offset="0.97" stop-color="#38383D"/>
<stop offset="1" stop-color="#1B1B20"/>
</linearGradient>
</defs>
</svg>
