<!-- Generated by IcoMoon.io -->
<svg version="1.1" xmlns="http://www.w3.org/2000/svg" width="1614" height="1024" viewBox="0 0 1614 1024">
<title></title>
<g id="icomoon-ignore">
</g>
<path fill="#ffca28" d="M1213.459-0.001h-812.915c-54.486 0-98.654 44.772-98.654 100v824.001c0 55.228 44.167 100 98.654 100h812.915c54.484 0 98.65-44.772 98.65-100v-824.001c0-55.228-44.167-100-98.65-100z"></path>
<path fill="#000" d="M965.314 783.606c8.571 17.7 21.874 32.577 38.377 42.917s35.546 15.726 54.914 15.536c39.17 0 64.187-19.929 64.187-47.509 0-32.919-25.704-44.662-68.819-63.881l-23.602-10.231c-68.203-29.628-113.581-66.728-113.581-145.020 0-72.065 54.037-127.047 138.506-127.047 27.405-2.019 54.792 4.23 78.722 17.967s43.351 34.349 55.842 59.258l-73.617 48.045c-4.833-12.328-13.233-22.872-24.075-30.23-10.86-7.358-23.657-11.18-36.709-10.962-5.394-0.577-10.843-0.063-16.038 1.515-5.2 1.578-10.040 4.187-14.243 7.676s-7.684 7.792-10.244 12.658c-2.561 4.868-4.148 10.201-4.674 15.695-0.118 1.246-0.175 2.519-0.175 3.824 0 28.826 17.486 40.481 57.973 58.365l23.604 10.319c80.441 35.055 125.748 70.731 125.748 151.070 0 86.657-66.901 134.076-156.701 134.076-34.943 2.202-69.773-5.924-100.286-23.398s-55.412-43.551-71.698-75.090l76.595-45.553zM631.388 792.059c14.865 26.779 28.419 49.467 60.771 49.467 31.129 0 50.713-12.456 50.713-60.498v-326.962h94.519v328.296c0 99.646-57.445 145.020-141.124 145.020-29.599 1.642-58.993-5.879-84.31-21.57s-45.368-38.817-57.512-66.331l76.945-47.421z"></path>
</svg>
