<svg width="98" height="98" viewBox="0 0 98 98" fill="none" xmlns="http://www.w3.org/2000/svg">
<path d="M97.0775 42.7748C99.4419 70.1416 81.4727 96.8691 53.1006 97.9571C26.3534 98.9828 3.17446 81.5145 0.61231 56.2339C-1.94984 30.9532 10.5534 5.20492 38.4526 0.725475C69.1891 -4.20952 94.8261 16.7146 97.0775 42.7748Z" fill="#7DDFFF"/>
<path d="M47.464 12.6764C49.2522 8.60355 51.0681 4.46765 53.0356 0.287652C48.3641 -0.196924 43.4764 -0.0811459 38.4526 0.725477C36.6046 1.02218 34.8242 1.41219 33.1113 1.8892C26.328 16.0422 18.2277 24.2904 1.99749 35.4189C0.356155 42.0781 -0.103173 49.1742 0.61231 56.2339C1.06322 60.683 2.15269 64.8902 3.78779 68.7972C29.4809 53.6355 38.0926 34.0212 47.464 12.6764Z" fill="#6BCDFF"/>
<path d="M96.133 36.7824C96.5842 38.7421 96.902 40.7428 97.0775 42.7748C99.4419 70.1416 81.4727 96.8691 53.1006 97.9571C42.1394 98.3774 31.7774 95.6918 23.188 90.6354C55.8111 56.4417 73.0252 41.0591 96.133 36.7824Z" fill="#6BCDFF"/>
<path d="M59.1905 43.3761C64.0296 51.6365 66.986 59.8813 67.8829 66.5076C68.3316 69.8231 68.2578 72.6825 67.6847 74.9183C67.1129 77.1494 66.0683 78.6812 64.6267 79.5115C63.1852 80.3419 61.3258 80.4828 59.088 79.8702C56.8455 79.2562 54.304 77.9033 51.6218 75.8743C46.2613 71.8192 40.5032 65.1882 35.6641 56.9278C30.825 48.6675 27.8685 40.4227 26.9717 33.7964C26.5229 30.4809 26.5968 27.6215 27.1699 25.3857C27.7417 23.1546 28.7863 21.6228 30.2278 20.7924C31.6694 19.9621 33.5288 19.8211 35.7666 20.4338C38.0091 21.0478 40.5506 22.4007 43.2327 24.4297C48.5933 28.4848 54.3514 35.1158 59.1905 43.3761Z" stroke="white" stroke-width="2"/>
<path d="M36.4824 42.9201C31.494 51.6724 28.4798 60.3841 27.61 67.3681C27.1748 70.8624 27.2829 73.8732 27.9104 76.2227C28.5367 78.5677 29.6549 80.1749 31.1893 81.0348C32.7237 81.8947 34.689 82.0155 37.0381 81.338C39.3916 80.6591 42.0485 79.1979 44.843 77.0257C50.428 72.6843 56.3997 65.6299 61.388 56.8776C66.3764 48.1253 69.3906 39.4136 70.2604 32.4297C70.6956 28.9353 70.5875 25.9246 69.96 23.5751C69.3337 21.2301 68.2155 19.6228 66.6811 18.7629C65.1468 17.903 63.1814 17.7822 60.8324 18.4598C58.4788 19.1387 55.8219 20.5999 53.0275 22.7721C47.4424 27.1135 41.4708 34.1679 36.4824 42.9201Z" stroke="black" stroke-width="2"/>
<path d="M49.2294 36.6927C39.6107 36.1221 30.8525 37.2121 24.4785 39.3989C21.289 40.4931 18.7459 41.8451 16.9895 43.3585C15.2364 44.869 14.33 46.4806 14.2309 48.124C14.1317 49.7673 14.8379 51.4746 16.3969 53.1816C17.9588 54.8918 20.3212 56.5348 23.3563 57.9983C29.4219 60.923 37.9867 63.0407 47.6053 63.6113C57.224 64.1819 65.9823 63.0918 72.3562 60.9051C75.5457 59.8109 78.0888 58.4589 79.8452 56.9455C81.5983 55.435 82.5047 53.8234 82.6039 52.18C82.703 50.5367 81.9968 48.8294 80.4378 47.1224C78.876 45.4122 76.5135 43.7692 73.4784 42.3057C67.4128 39.381 58.848 37.2633 49.2294 36.6927Z" stroke="#006FFF" stroke-width="2"/>
<ellipse cx="48.7857" cy="50.8148" rx="6.40566" ry="6.35185" fill="white"/>
</svg>
